<?xml version="1.0" encoding="utf-8"?>
<svg width="1211pt" height="179pt" viewBox="0 0 1211 179" version="1.1" xmlns="http://www.w3.org/2000/svg">
<path fill="#fffefe" d=" M 0.00 0.00 L 1211.00 0.00 L 1211.00 179.00 L 0.00 179.00 L 0.00 0.00 Z"/>
<path fill="#f54a38" d=" M 424.49 6.97 C 423.22 2.16 429.35 0.03 433.09 0.73 C 436.16 1.42 436.74 4.96 437.27 7.55 C 439.37 18.64 434.62 29.47 429.73 39.15 C 437.20 36.75 444.51 33.85 451.74 30.78 C 455.14 29.29 458.84 27.04 462.67 28.46 C 467.07 30.44 467.32 37.61 462.99 39.86 C 453.27 44.97 442.75 48.33 432.39 51.87 C 444.23 62.98 455.26 74.91 466.35 86.76 C 471.30 92.16 477.16 96.61 483.16 100.78 C 486.03 102.78 488.85 105.41 489.76 108.91 C 490.05 111.19 489.64 114.10 487.44 115.34 C 485.52 116.53 483.10 115.94 481.27 114.88 C 474.84 111.07 468.62 106.93 462.77 102.27 C 464.91 120.86 457.91 140.05 444.72 153.25 C 456.85 153.50 469.01 153.31 481.11 154.37 C 484.18 154.62 487.88 156.49 487.93 160.00 C 488.30 163.35 485.41 166.63 482.00 166.48 C 459.76 165.09 437.32 164.79 415.18 167.69 C 399.00 169.96 382.82 172.70 367.13 177.35 C 363.59 178.28 358.92 179.06 356.58 175.48 C 353.51 172.84 354.02 167.53 357.75 165.78 C 365.71 162.55 374.28 161.27 382.62 159.35 C 381.53 143.81 377.65 128.70 373.83 113.66 C 367.39 121.93 361.72 130.91 354.27 138.36 C 351.57 140.73 347.90 143.83 344.10 142.05 C 341.57 140.23 342.09 136.17 343.90 134.01 C 357.41 117.96 370.69 100.99 377.70 80.95 C 379.64 75.68 381.11 70.22 381.55 64.61 C 374.05 65.73 366.52 66.94 358.92 67.10 C 353.36 67.50 349.21 60.19 352.80 55.78 C 355.08 53.97 358.29 54.53 361.01 54.05 C 378.09 52.14 395.09 49.13 411.68 44.59 C 413.51 39.30 418.80 36.33 421.24 31.35 C 426.00 24.15 426.15 15.17 424.49 6.97 Z"/>
<path fill="#f54a38" d=" M 965.92 2.36 C 969.39 1.56 973.37 0.14 976.64 2.34 C 979.07 3.90 978.04 7.52 976.27 9.21 C 972.14 13.56 965.92 14.71 960.49 16.64 C 959.67 20.75 959.12 25.10 957.72 29.15 C 963.55 28.39 969.10 26.28 974.90 25.38 C 977.81 24.76 981.23 26.09 982.29 29.03 C 982.62 31.97 980.86 35.29 977.90 36.13 C 970.44 38.96 962.60 40.53 954.84 42.28 C 953.76 42.56 952.30 42.71 951.98 44.02 C 949.74 49.23 947.05 54.22 944.67 59.35 C 962.04 55.75 979.24 51.07 996.09 45.50 C 999.19 44.19 1002.47 48.08 1000.91 50.97 C 999.12 55.14 994.62 56.96 990.84 58.87 C 974.85 66.04 957.72 70.09 940.88 74.71 C 938.79 75.48 935.85 75.31 934.67 77.52 C 925.86 92.59 917.17 107.77 907.21 122.13 C 904.94 125.15 902.76 128.30 900.00 130.91 C 898.20 132.39 895.18 133.69 893.21 131.82 C 891.89 128.28 894.39 124.73 895.50 121.42 C 902.68 107.28 911.69 94.16 919.51 80.37 C 911.09 81.96 902.73 84.45 894.10 84.64 C 889.52 84.73 887.55 78.77 889.05 75.16 C 891.70 71.15 896.86 70.43 901.13 69.22 C 909.82 67.53 918.48 65.67 927.14 63.82 C 928.21 63.52 929.66 63.43 930.15 62.21 C 932.91 56.98 935.26 51.55 937.86 46.25 C 933.42 46.61 927.75 49.73 924.03 45.92 C 920.79 43.18 920.92 36.97 925.34 35.52 C 931.40 34.26 937.53 33.24 943.67 32.43 C 945.57 28.37 946.63 23.99 948.09 19.77 C 943.08 20.36 938.12 21.88 933.05 21.51 C 927.77 19.61 928.02 9.18 934.07 8.42 C 944.83 7.29 955.38 4.77 965.92 2.36 Z"/>
<path fill="#f54a38" d=" M 229.38 6.34 C 232.10 4.66 236.11 5.41 237.81 8.21 C 243.80 16.23 249.67 24.35 255.39 32.57 C 264.52 45.83 275.10 58.20 287.45 68.57 C 293.50 73.70 300.41 77.65 306.96 82.07 C 308.95 83.14 309.03 86.17 306.89 87.12 C 303.79 88.47 300.18 88.16 296.94 87.53 C 286.93 84.66 278.61 77.96 271.20 70.89 C 252.84 54.46 239.98 33.13 226.24 12.98 C 226.06 10.44 227.28 7.79 229.38 6.34 Z"/>
<path fill="#f54a38" d=" M 19.37 10.49 C 21.86 8.78 25.09 9.92 27.25 11.63 C 30.51 14.40 30.86 19.07 30.71 23.05 C 30.52 25.82 30.19 29.01 27.99 30.98 C 25.55 32.96 22.19 31.61 19.78 30.28 C 15.28 27.61 14.22 21.81 14.43 16.98 C 14.53 14.01 16.88 11.77 19.37 10.49 Z"/>
<path fill="#f54a38" d=" M 381.33 12.49 C 383.81 10.95 386.88 12.27 388.71 14.21 C 394.55 20.00 398.66 27.23 402.77 34.27 C 404.52 36.74 403.72 40.53 401.23 42.19 C 398.93 43.68 395.50 43.56 393.70 41.34 C 388.72 35.24 383.73 29.10 379.55 22.41 C 377.25 19.44 378.11 14.43 381.33 12.49 Z"/>
<path fill="#f54a38" d=" M 1110.02 24.36 C 1122.22 19.71 1134.92 16.26 1147.86 14.44 C 1151.07 14.18 1154.78 13.28 1157.60 15.39 C 1161.66 18.11 1163.04 23.09 1164.22 27.56 C 1167.10 40.15 1166.77 53.17 1166.47 66.00 C 1166.02 76.69 1165.93 87.42 1164.89 98.08 C 1164.35 103.24 1157.54 104.76 1153.68 102.29 C 1151.74 100.77 1152.29 98.05 1152.33 95.92 C 1153.52 82.99 1153.75 69.99 1154.02 57.02 C 1154.10 48.14 1154.48 39.11 1152.42 30.41 C 1151.88 28.91 1151.23 26.11 1149.06 26.78 C 1139.87 28.51 1130.87 31.15 1122.09 34.35 C 1118.28 35.76 1114.33 36.73 1110.31 37.28 C 1106.13 60.98 1107.88 85.12 1107.97 109.04 C 1108.22 113.47 1102.57 116.22 1099.00 114.05 C 1096.05 111.62 1096.42 107.48 1096.24 104.07 C 1095.94 88.37 1095.70 72.67 1096.14 56.97 C 1096.20 46.94 1098.11 36.89 1096.68 26.87 C 1095.64 21.41 1103.87 17.33 1107.73 21.25 C 1108.59 22.20 1109.27 23.30 1110.02 24.36 Z"/>
<path fill="#f54a38" d=" M 192.36 27.38 C 195.32 25.53 199.93 27.36 200.29 31.00 C 200.33 35.33 198.13 39.27 196.23 43.05 C 188.73 57.74 179.45 71.43 169.80 84.78 C 166.79 88.98 163.72 93.31 159.48 96.37 C 157.23 97.77 153.35 97.73 152.07 95.02 C 151.47 93.50 151.51 91.75 152.29 90.30 C 159.14 76.95 168.69 65.26 176.36 52.41 C 180.58 45.55 184.80 38.68 188.60 31.57 C 189.50 29.91 190.63 28.27 192.36 27.38 Z"/>
<path fill="#f54a38" d=" M 1125.34 46.45 C 1128.16 45.17 1132.27 44.93 1134.34 47.68 C 1135.63 49.15 1135.93 51.14 1136.02 53.03 C 1136.60 63.03 1137.39 73.13 1135.85 83.08 C 1132.05 108.12 1120.10 131.07 1105.46 151.44 C 1101.30 157.21 1097.17 163.04 1092.32 168.27 C 1090.37 170.28 1087.90 172.19 1085.01 172.33 C 1081.31 172.13 1080.92 167.12 1082.85 164.77 C 1090.48 153.28 1098.20 141.82 1104.81 129.69 C 1113.46 114.70 1120.39 98.39 1122.60 81.12 C 1123.79 71.13 1122.54 61.06 1122.75 51.04 C 1122.75 49.21 1123.65 47.30 1125.34 46.45 Z"/>
<path fill="#fffefe" d=" M 394.46 62.31 C 402.51 60.07 410.69 58.34 418.73 56.09 C 420.25 60.32 424.48 62.46 427.40 65.61 C 436.44 73.87 443.98 83.55 452.18 92.59 C 429.37 92.14 406.85 98.27 386.33 107.93 C 385.75 104.84 384.49 101.96 383.27 99.10 C 389.11 87.72 394.86 75.38 394.46 62.31 Z"/>
<path fill="#f54a38" d=" M 61.38 75.07 C 61.85 73.33 62.89 71.32 64.90 71.13 C 69.12 70.66 73.01 73.80 74.15 77.76 C 75.53 81.17 73.99 84.73 73.29 88.11 C 71.00 98.35 69.55 108.84 69.68 119.35 C 70.54 118.63 71.35 117.87 72.11 117.05 C 82.21 105.10 94.10 94.54 107.62 86.60 C 113.12 83.90 120.52 89.99 119.60 96.03 C 119.01 112.06 117.12 128.00 115.40 143.93 C 115.26 146.31 113.78 149.16 111.02 148.92 C 105.49 148.94 101.79 143.10 102.06 138.01 C 102.92 127.39 104.59 116.86 105.50 106.25 C 94.61 114.23 84.39 123.48 76.67 134.64 C 73.91 138.34 72.74 143.06 69.51 146.42 C 67.09 149.08 62.82 147.61 60.93 145.07 C 57.68 140.78 56.94 135.23 56.26 130.04 C 54.53 111.60 56.51 92.90 61.38 75.07 Z"/>
<path fill="#f54a38" d=" M 941.78 82.01 C 941.65 76.42 948.66 75.33 952.66 77.30 C 954.47 78.46 954.89 80.76 955.63 82.63 C 965.04 79.48 975.09 78.71 984.96 78.82 C 988.71 78.67 991.49 81.95 992.73 85.17 C 994.78 91.21 995.41 97.62 995.77 103.95 C 996.90 122.61 996.99 141.31 997.94 159.98 C 998.43 164.38 996.09 169.26 991.78 170.80 C 989.60 171.72 987.31 170.78 985.10 170.59 C 973.23 173.44 961.30 176.88 949.02 177.17 C 945.30 176.04 939.49 176.76 938.29 172.02 C 937.62 166.70 938.23 161.33 938.40 156.01 C 939.83 131.36 941.67 106.71 941.78 82.01 Z"/>
<path fill="#f54a38" d=" M 10.37 78.46 C 17.00 76.51 24.21 82.91 22.50 89.85 C 18.71 105.04 14.50 120.33 14.05 136.07 C 14.73 138.55 17.21 140.29 17.31 143.04 C 18.17 145.92 15.68 148.74 12.99 149.36 C 8.93 149.85 4.98 147.33 3.32 143.68 C 1.39 139.43 0.28 134.66 0.78 129.99 C 0.26 115.72 4.89 101.92 7.35 88.00 C 6.90 84.57 6.56 80.17 10.37 78.46 Z"/>
<path fill="#f54a38" d=" M 208.27 79.30 C 210.76 78.10 214.48 78.46 215.76 81.22 C 217.16 84.85 215.36 88.65 214.24 92.10 C 206.43 112.63 196.33 132.19 187.32 152.20 C 210.46 146.99 231.84 136.01 252.23 124.19 C 254.59 123.47 253.37 120.79 253.63 119.02 C 253.46 115.43 257.22 111.90 260.80 113.25 C 263.47 114.06 264.67 116.78 265.96 119.00 C 272.67 131.46 277.23 144.92 281.87 158.25 C 282.78 161.01 283.89 163.99 282.97 166.91 C 282.15 170.27 277.74 172.02 274.82 170.23 C 272.63 168.97 271.54 166.57 270.49 164.39 C 265.89 154.37 261.36 144.29 257.71 133.87 C 247.22 142.18 235.49 148.80 223.34 154.35 C 211.47 159.69 199.03 164.43 185.93 165.39 C 182.71 165.63 179.14 165.72 176.42 163.70 C 173.14 161.30 172.35 156.64 173.56 152.94 C 175.45 146.72 178.21 140.81 180.90 134.90 C 188.54 118.52 196.24 102.16 203.27 85.51 C 204.32 83.05 205.67 80.41 208.27 79.30 Z"/>
<path fill="#fffefe" d=" M 954.55 96.62 C 962.38 93.68 970.59 91.38 979.01 91.15 C 981.04 90.73 981.97 92.86 982.34 94.46 C 983.62 100.14 983.71 105.99 984.06 111.78 C 980.81 110.21 977.22 111.16 973.94 112.05 C 966.80 114.12 959.75 116.42 952.70 118.73 C 953.29 111.36 954.04 104.00 954.55 96.62 Z"/>
<path fill="#f54a38" d=" M 1136.35 97.35 C 1139.73 95.26 1145.23 97.01 1145.41 101.39 C 1145.72 115.24 1145.34 129.12 1145.58 142.98 C 1145.66 148.45 1148.60 153.88 1153.55 156.41 C 1160.73 160.17 1169.17 159.66 1177.00 158.94 C 1183.10 158.26 1189.48 157.13 1194.60 153.51 C 1197.65 151.33 1199.64 147.73 1199.62 143.95 C 1199.57 134.72 1197.02 125.76 1194.59 116.93 C 1193.97 115.26 1195.48 113.55 1197.09 113.26 C 1199.40 112.54 1201.62 114.23 1202.82 116.08 C 1206.89 122.31 1208.91 129.63 1210.04 136.91 C 1210.33 140.89 1209.79 144.88 1210.00 148.87 C 1210.63 155.77 1205.22 161.46 1199.68 164.71 C 1188.89 170.73 1176.18 171.63 1164.09 172.00 C 1154.89 172.18 1144.65 169.98 1138.62 162.45 C 1133.13 155.63 1133.10 146.29 1132.99 137.96 C 1133.01 126.29 1132.94 114.60 1133.29 102.93 C 1133.19 100.69 1134.36 98.44 1136.35 97.35 Z"/>
<path fill="#f54a38" d=" M 551.00 98.00 C 643.00 98.00 735.00 98.00 827.00 98.00 C 826.99 101.67 826.99 105.33 827.00 109.00 C 735.00 109.00 643.00 109.00 551.00 109.00 C 551.00 105.33 551.00 101.67 551.00 98.00 Z"/>
<path fill="#fffefe" d=" M 432.55 105.79 C 437.67 105.09 442.81 104.23 447.99 104.36 C 450.27 105.07 450.86 107.88 451.15 109.96 C 451.52 127.25 440.76 142.37 428.14 153.19 C 427.03 154.39 425.35 154.35 423.86 154.40 C 431.20 139.40 434.65 122.44 432.55 105.79 Z"/>
<path fill="#fffefe" d=" M 408.21 111.72 C 413.16 110.12 418.13 108.53 423.26 107.54 C 425.59 123.95 422.09 140.86 414.15 155.33 C 412.33 155.40 410.51 155.52 408.71 155.67 C 409.69 141.05 410.48 126.27 408.21 111.72 Z"/>
<path fill="#fffefe" d=" M 388.66 120.04 C 392.30 118.47 395.93 116.87 399.49 115.14 C 401.20 128.81 401.16 142.70 400.45 156.45 C 397.98 156.90 395.50 157.27 393.01 157.59 C 392.92 144.96 390.35 132.52 388.66 120.04 Z"/>
<path fill="#fffefe" d=" M 952.01 128.92 C 962.87 125.34 973.54 121.22 984.18 117.01 C 984.27 122.25 984.46 127.49 984.27 132.73 C 973.29 135.52 962.51 139.11 951.36 141.24 C 951.29 137.12 951.68 133.02 952.01 128.92 Z"/>
<path fill="#fffefe" d=" M 950.61 151.65 C 962.23 148.98 973.70 145.21 984.30 139.69 C 984.58 145.94 984.50 152.20 984.55 158.45 C 973.16 161.16 961.57 163.33 949.85 163.62 C 949.96 159.62 950.16 155.62 950.61 151.65 Z"/>
</svg>
